<?xml version="1.0" encoding="UTF-8" standalone="no"?>
<!-- Created with Inkscape (http://www.inkscape.org/) -->

<svg
   width="4.1963544in"
   height="0.92996341in"
   viewBox="0 0 106.58741 23.621071"
   version="1.1"
   id="svg5"
   inkscape:version="1.2.2 (b0a8486541, 2022-12-01)"
   sodipodi:docname="medix.svg"
   xmlns:inkscape="http://www.inkscape.org/namespaces/inkscape"
   xmlns:sodipodi="http://sodipodi.sourceforge.net/DTD/sodipodi-0.dtd"
   xmlns="http://www.w3.org/2000/svg"
   xmlns:svg="http://www.w3.org/2000/svg">
  <sodipodi:namedview
     id="namedview7"
     pagecolor="#ffffff"
     bordercolor="#000000"
     borderopacity="0.25"
     inkscape:showpageshadow="2"
     inkscape:pageopacity="0.0"
     inkscape:pagecheckerboard="0"
     inkscape:deskcolor="#d1d1d1"
     inkscape:document-units="mm"
     showgrid="false"
     inkscape:zoom="0.44453563"
     inkscape:cx="-16.871538"
     inkscape:cy="214.83092"
     inkscape:window-width="1366"
     inkscape:window-height="699"
     inkscape:window-x="0"
     inkscape:window-y="0"
     inkscape:window-maximized="1"
     inkscape:current-layer="text113" />
  <defs
     id="defs2" />
  <g
     inkscape:label="Layer 1"
     inkscape:groupmode="layer"
     id="layer1"
     transform="translate(-109.12663,-236.77598)">
    <g
       aria-label="medix+"
       id="text113"
       style="font-weight:bold;font-size:31.8511px;font-family:Inter;-inkscape-font-specification:'Inter Bold';text-align:center;text-anchor:middle;fill:#2e8dde;stroke-width:1.50477"
       transform="translate(51.444444,100.32213)">
      <g
         aria-label="medix+"
         id="text360"
         style="font-size:30.7967px;font-family:'Reckless Neue';-inkscape-font-specification:'Reckless Neue Bold';fill:#ff0000;stroke-width:1.45496">
        <path
           d="m 81.949988,143.87586 c -0.831511,-0.46195 -1.755412,-0.70833 -2.740907,-0.70833 -1.416648,0 -2.679313,0.49275 -3.7264,1.41665 -1.077885,0.9547 -1.724616,2.24816 -1.940192,3.91118 h -0.184781 c -0.123186,-1.63222 -0.677527,-2.92569 -1.693818,-3.88038 -1.047088,-0.9547 -2.278956,-1.44745 -3.757197,-1.44745 -1.416649,0 -2.648517,0.49275 -3.695604,1.41665 -1.077885,0.9547 -1.724616,2.24816 -1.940192,3.91118 h -0.184781 l -0.153983,-4.83508 h -4.249945 v 15.8911 h 4.403928 v -8.28432 c 0,-1.44744 0.307967,-2.58692 0.923901,-3.41843 0.615934,-0.80071 1.509039,-1.23187 2.648516,-1.23187 1.016292,0 1.817006,0.36956 2.43294,1.07789 0.585137,0.73912 0.893104,1.72461 0.893104,2.95648 v 8.90025 h 4.373131 v -8.28432 c 0,-1.44744 0.307967,-2.58692 0.923901,-3.41843 0.615934,-0.80071 1.509039,-1.23187 2.648516,-1.23187 1.047088,0 1.847802,0.36956 2.43294,1.07789 0.585137,0.70832 0.893104,1.69382 0.893104,2.95648 v 8.90025 H 84.6293 v -10.56327 c 0,-1.17028 -0.246373,-2.21736 -0.73912,-3.11047 -0.492748,-0.86231 -1.139478,-1.53983 -1.940192,-2.00178 z"
           style="font-family:'Tomato Grotesk';-inkscape-font-specification:'Tomato Grotesk Bold';fill:#22ee88;fill-opacity:0.866667"
           id="path1254" />
        <path
           d="m 103.23053,152.49893 v -1.26266 c 0,-1.47824 -0.33877,-2.8333 -0.9855,-4.06517 -0.64673,-1.23186 -1.57063,-2.18656 -2.802496,-2.92568 -1.231868,-0.70833 -2.679313,-1.07789 -4.311538,-1.07789 -1.663022,0 -3.110467,0.36956 -4.342335,1.04709 -1.231868,0.67753 -2.186566,1.66302 -2.864093,2.92569 -0.677527,1.29346 -1.016291,2.7409 -1.016291,4.40392 0,2.71011 0.739121,4.80429 2.278956,6.28253 1.509038,1.47824 3.572417,2.21736 6.220933,2.21736 1.170274,0 2.309752,-0.21557 3.418434,-0.67752 1.108681,-0.43116 2.03258,-1.10869 2.8333,-2.03259 0.76991,-0.8931 1.23186,-2.00178 1.41664,-3.29524 h -3.818787 c -0.215577,0.80071 -0.677527,1.47824 -1.355054,1.97099 -0.677528,0.49274 -1.509039,0.73912 -2.494533,0.73912 -1.262665,0 -2.278956,-0.36956 -3.07967,-1.13948 -0.800714,-0.73912 -1.231868,-1.78621 -1.231868,-3.11047 z m -10.932831,-5.08145 c 0.708324,-0.61594 1.632225,-0.9547 2.740907,-0.9547 1.077884,0 1.970988,0.33876 2.679312,0.98549 0.708324,0.64673 1.108682,1.53984 1.201072,2.67932 h -7.822362 c 0.06159,-1.17028 0.46195,-2.06338 1.201071,-2.71011 z"
           style="font-family:'Tomato Grotesk';-inkscape-font-specification:'Tomato Grotesk Bold';fill:#22ee88;fill-opacity:0.866667"
           id="path1256" />
        <path
           d="m 117.70495,137.99369 v 10.16291 h -0.15399 c -0.46195,-1.60143 -1.23187,-2.8333 -2.27895,-3.69561 -1.04709,-0.83151 -2.24816,-1.26266 -3.60322,-1.26266 -1.29346,0 -2.46373,0.36956 -3.48002,1.04709 -1.04709,0.67752 -1.84781,1.66302 -2.40215,2.95648 -0.58513,1.29346 -0.8623,2.7717 -0.8623,4.46552 0,1.69382 0.27717,3.17206 0.8623,4.43473 0.55434,1.29346 1.35506,2.27895 2.40215,2.95648 1.01629,0.67753 2.18656,1.01629 3.48002,1.01629 1.35506,0 2.55613,-0.40036 3.60322,-1.23187 1.04708,-0.83151 1.817,-2.06338 2.27895,-3.6956 h 0.15399 l 0.15398,4.40393 h 4.21915 v -21.55769 z m -1.13948,17.80049 c -0.76992,0.83151 -1.78621,1.23187 -3.01808,1.23187 -1.29346,0 -2.30975,-0.46195 -3.07967,-1.41665 -0.76992,-0.9547 -1.13948,-2.27896 -1.13948,-3.94198 0,-1.69382 0.36956,-3.01808 1.13948,-3.97277 0.76992,-0.9547 1.78621,-1.44745 3.07967,-1.44745 1.23187,0 2.24816,0.43116 3.01808,1.26267 0.73912,0.8623 1.13948,1.90939 1.13948,3.20285 v 1.8786 c 0,1.29346 -0.40036,2.37135 -1.13948,3.20286 z"
           style="font-family:'Tomato Grotesk';-inkscape-font-specification:'Tomato Grotesk Bold';fill:#22ee88;fill-opacity:0.866667"
           id="path1258" />
        <path
           d="m 125.7737,140.79619 c 0.49274,0.49274 1.10868,0.73912 1.817,0.73912 0.70832,0 1.32426,-0.24638 1.81701,-0.73912 0.49274,-0.49275 0.76991,-1.07789 0.76991,-1.78621 0,-0.70833 -0.27717,-1.32426 -0.76991,-1.81701 -0.49275,-0.49274 -1.10869,-0.73912 -1.81701,-0.73912 -0.70832,0 -1.32426,0.27717 -1.817,0.76992 -0.49275,0.49275 -0.73913,1.10868 -0.73913,1.78621 0,0.70832 0.24638,1.29346 0.73913,1.78621 z m -0.33877,18.75519 h 4.37313 v -15.8911 h -4.37313 z"
           style="font-family:'Tomato Grotesk';-inkscape-font-specification:'Tomato Grotesk Bold';fill:#22ee88;fill-opacity:0.866667"
           id="path1260" />
        <path
           d="m 131.53268,159.55138 h 4.89668 l 0.9547,-1.35506 c 1.04708,-1.53983 1.8478,-2.7409 2.40214,-3.66481 h 0.18478 c 0.49275,0.86231 1.29346,2.09418 2.34055,3.66481 l 0.98549,1.35506 h 4.98907 l -5.91297,-8.16113 5.605,-7.72997 h -4.92747 l -0.64673,0.8931 c -0.67753,1.01629 -1.47824,2.24816 -2.37135,3.69561 h -0.15398 c -0.49275,-0.76992 -1.26267,-1.97099 -2.34055,-3.63401 l -0.67753,-0.9547 h -5.01986 l 5.5742,7.76077 z"
           style="font-family:'Tomato Grotesk';-inkscape-font-specification:'Tomato Grotesk Bold';fill:#22ee88;fill-opacity:0.866667"
           id="path1262" />
        <path
           d="m 158.81857,146.70915 v -5.48181 h -4.06516 v 5.48181 h -5.45102 v 3.7264 h 5.45102 v 5.48182 h 4.06516 v -5.48182 h 5.45102 v -3.7264 z"
           id="path1264" />
      </g>
    </g>
  </g>
</svg>
