<?xml version="1.0" encoding="UTF-8" standalone="no"?>
<!-- Created with Inkscape (http://www.inkscape.org/) -->

<svg
   width="89.209915mm"
   height="23.93251mm"
   viewBox="0 0 89.209915 23.93251"
   version="1.1"
   id="svg5"
   inkscape:version="1.2.2 (b0a8486541, 2022-12-01)"
   sodipodi:docname="medix.svg"
   xmlns:inkscape="http://www.inkscape.org/namespaces/inkscape"
   xmlns:sodipodi="http://sodipodi.sourceforge.net/DTD/sodipodi-0.dtd"
   xmlns="http://www.w3.org/2000/svg"
   xmlns:svg="http://www.w3.org/2000/svg">
  <sodipodi:namedview
     id="namedview7"
     pagecolor="#ffffff"
     bordercolor="#000000"
     borderopacity="0.25"
     inkscape:showpageshadow="2"
     inkscape:pageopacity="0.0"
     inkscape:pagecheckerboard="0"
     inkscape:deskcolor="#d1d1d1"
     inkscape:document-units="mm"
     showgrid="false"
     inkscape:zoom="0.44453563"
     inkscape:cx="172.08969"
     inkscape:cy="73.11"
     inkscape:window-width="1366"
     inkscape:window-height="699"
     inkscape:window-x="0"
     inkscape:window-y="0"
     inkscape:window-maximized="1"
     inkscape:current-layer="layer1" />
  <defs
     id="defs2" />
  <g
     inkscape:label="Layer 1"
     inkscape:groupmode="layer"
     id="layer1"
     transform="translate(-59.834282,-129.70223)">
    <g
       aria-label="medix"
       id="text1516"
       style="font-weight:bold;font-size:30.7034px;font-family:'Tomato Grotesk';-inkscape-font-specification:'Tomato Grotesk Bold';text-align:center;text-anchor:middle;fill:#ff0000;fill-opacity:0.866667;stroke-width:1.45055">
      <path
         d="m 59.834282,153.30765 v -16.74731 h 4.426698 v 2.95476 h 0.196257 q 0.523354,-1.47193 1.744511,-2.32238 1.221158,-0.85045 2.922057,-0.85045 1.722705,0 2.93296,0.86136 1.210254,0.85045 1.613673,2.31147 h 0.174451 q 0.51245,-1.43922 1.853543,-2.30057 1.351996,-0.87226 3.194637,-0.87226 2.344187,0 3.805215,1.49374 1.471931,1.48284 1.471931,4.20864 v 11.263 h -4.633858 v -10.34714 q 0,-1.3956 -0.741417,-2.09341 -0.741418,-0.6978 -1.853544,-0.6978 -1.26477,0 -1.973478,0.80683 -0.708708,0.79594 -0.708708,2.10432 v 10.2272 h -4.50302 v -10.44526 q 0,-1.23207 -0.708707,-1.96258 -0.697805,-0.73051 -1.84264,-0.73051 -0.774127,0 -1.39561,0.39251 -0.610579,0.38161 -0.970384,1.07942 -0.359805,0.6869 -0.359805,1.61367 v 10.05275 z"
         style="font-family:Inter;-inkscape-font-specification:'Inter Bold';fill:#2e8dde"
         id="path1778" />
      <path
         d="m 95.465932,153.63474 q -2.584058,0 -4.448504,-1.0467 -1.853543,-1.05761 -2.856637,-2.98748 -1.003095,-1.94077 -1.003095,-4.59024 0,-2.58406 1.003095,-4.53573 1.003094,-1.95168 2.823927,-3.042 1.831737,-1.09032 4.295859,-1.09032 1.657286,0 3.085605,0.53426 1.439222,0.52335 2.507738,1.58096 1.07941,1.05761 1.67909,2.66038 0.59967,1.59187 0.59967,3.7289 v 1.27567 H 89.01124 V 143.244 h 9.769263 q 0,-1.0031 -0.436128,-1.77722 -0.436127,-0.77413 -1.210254,-1.21026 -0.763224,-0.44703 -1.777221,-0.44703 -1.05761,0 -1.87535,0.49064 -0.806836,0.47975 -1.264771,1.29749 -0.457934,0.80683 -0.468837,1.79902 v 2.7367 q 0,1.24297 0.457934,2.14793 0.468838,0.90497 1.319287,1.39561 0.850449,0.49065 2.017091,0.49065 0.774127,0 1.417416,-0.21807 0.643288,-0.21806 1.101222,-0.65419 0.457935,-0.43613 0.697805,-1.06851 l 4.295863,0.28348 q -0.3271,1.54826 -1.3411,2.70399 -1.00309,1.14484 -2.594958,1.78813 -1.580963,0.63238 -3.65257,0.63238 z"
         style="font-family:Inter;-inkscape-font-specification:'Inter Bold';fill:#2e8dde"
         id="path1780" />
      <path
         d="m 112.35498,153.58023 q -1.90806,0 -3.45631,-0.98129 -1.53735,-0.99219 -2.44232,-2.91115 -0.89406,-1.92987 -0.89406,-4.73199 0,-2.87844 0.92677,-4.7865 0.92677,-1.91897 2.46412,-2.86754 1.54826,-0.95949 3.3909,-0.95949 1.40651,0 2.34419,0.47975 0.94857,0.46883 1.52644,1.17754 0.58878,0.69781 0.89407,1.3738 h 0.14174 v -8.39546 h 4.63386 v 22.32975 h -4.57935 v -2.68219 h -0.19625 q -0.3271,0.69781 -0.92678,1.38471 -0.58877,0.676 -1.53735,1.12303 -0.93767,0.44703 -2.28967,0.44703 z m 1.47193,-3.69619 q 1.12303,0 1.89716,-0.61057 0.78503,-0.62149 1.19935,-1.73361 0.42523,-1.11213 0.42523,-2.60587 0,-1.49373 -0.41433,-2.59496 -0.41432,-1.10122 -1.19935,-1.7009 -0.78503,-0.59967 -1.90806,-0.59967 -1.14483,0 -1.92986,0.62148 -0.78503,0.62148 -1.18845,1.72271 -0.40342,1.10122 -0.40342,2.55134 0,1.46103 0.40342,2.58406 0.41432,1.11213 1.18845,1.74451 0.78503,0.62148 1.92986,0.62148 z"
         style="font-family:Inter;-inkscape-font-specification:'Inter Bold';fill:#2e8dde"
         id="path1782" />
      <path
         d="m 125.68958,153.30765 v -16.74731 h 4.64476 v 16.74731 z m 2.33328,-18.90614 q -1.0358,0 -1.77722,-0.68691 -0.73052,-0.6978 -0.73052,-1.66818 0,-0.95949 0.73052,-1.64639 0.74142,-0.6978 1.77722,-0.6978 1.0358,0 1.76632,0.6978 0.74141,0.6869 0.74141,1.64639 0,0.97038 -0.74141,1.66818 -0.73052,0.68691 -1.76632,0.68691 z"
         style="font-family:Inter;-inkscape-font-specification:'Inter Bold';fill:#2e8dde"
         id="path1784" />
      <path
         d="m 137.92294,136.56034 3.0747,5.85501 3.15103,-5.85501 h 4.76469 l -4.85192,8.37365 4.98276,8.37366 h -4.74289 l -3.30367,-5.7896 -3.24915,5.7896 h -4.7974 l 4.97185,-8.37366 -4.7974,-8.37365 z"
         style="font-family:Inter;-inkscape-font-specification:'Inter Bold';fill:#2e8dde"
         id="path1786" />
    </g>
  </g>
</svg>
